<svg xmlns="http://www.w3.org/2000/svg" width="1748" height="2480" viewBox="0 0 1748 2480" fill="none">
  <defs>
    <linearGradient id="bgGradient" x1="151" y1="106" x2="1567" y2="2374" gradientUnits="userSpaceOnUse">
      <stop stop-color="#EEF4FF"/>
      <stop offset="0.38" stop-color="#F9FBFF"/>
      <stop offset="1" stop-color="#E8EEFF"/>
    </linearGradient>
    <linearGradient id="brandGradient" x1="239" y1="337" x2="1416" y2="1766" gradientUnits="userSpaceOnUse">
      <stop stop-color="#6C5CE7"/>
      <stop offset="0.52" stop-color="#4F7CFF"/>
      <stop offset="1" stop-color="#19CBE0"/>
    </linearGradient>
    <linearGradient id="cardGradient" x1="1091" y1="512" x2="1544" y2="1201" gradientUnits="userSpaceOnUse">
      <stop stop-color="#132544"/>
      <stop offset="1" stop-color="#0A1530"/>
    </linearGradient>
    <linearGradient id="ctaGradient" x1="252" y1="2047" x2="1497" y2="2181" gradientUnits="userSpaceOnUse">
      <stop stop-color="#6C5CE7"/>
      <stop offset="0.55" stop-color="#507DFF"/>
      <stop offset="1" stop-color="#1BC9DB"/>
    </linearGradient>
    <filter id="shadowLg" x="130" y="153" width="1570" height="2177" filterUnits="userSpaceOnUse" color-interpolation-filters="sRGB">
      <feFlood flood-opacity="0" result="BackgroundImageFix"/>
      <feColorMatrix in="SourceAlpha" type="matrix" values="0 0 0 0 0 0 0 0 0 0 0 0 0 0 0 0 0 0 127 0" result="hardAlpha"/>
      <feOffset dy="28"/>
      <feGaussianBlur stdDeviation="40"/>
      <feColorMatrix type="matrix" values="0 0 0 0 0.051 0 0 0 0 0.113 0 0 0 0 0.247 0 0 0 0.14 0"/>
      <feBlend mode="normal" in2="BackgroundImageFix" result="effect1_dropShadow_1_1"/>
      <feBlend mode="normal" in="SourceGraphic" in2="effect1_dropShadow_1_1" result="shape"/>
    </filter>
    <filter id="blurGlow" x="1035" y="332" width="521" height="521" filterUnits="userSpaceOnUse" color-interpolation-filters="sRGB">
      <feFlood flood-opacity="0" result="BackgroundImageFix"/>
      <feBlend mode="normal" in="SourceGraphic" in2="BackgroundImageFix" result="shape"/>
      <feGaussianBlur stdDeviation="60" result="effect1_foregroundBlur_1_1"/>
    </filter>
    <filter id="softGlow" x="-54" y="1708" width="619" height="619" filterUnits="userSpaceOnUse" color-interpolation-filters="sRGB">
      <feFlood flood-opacity="0" result="BackgroundImageFix"/>
      <feBlend mode="normal" in="SourceGraphic" in2="BackgroundImageFix" result="shape"/>
      <feGaussianBlur stdDeviation="60" result="effect1_foregroundBlur_1_1"/>
    </filter>
    <clipPath id="clipCard">
      <rect x="1037" y="406" width="504" height="792" rx="42"/>
    </clipPath>
  </defs>

  <rect width="1748" height="2480" fill="url(#bgGradient)"/>
  <circle cx="1384" cy="592" r="140" fill="#A5B4FC" fill-opacity="0.32" filter="url(#blurGlow)"/>
  <circle cx="255" cy="2018" r="129" fill="#93C5FD" fill-opacity="0.32" filter="url(#softGlow)"/>
  <circle cx="1488" cy="1668" r="190" fill="#C4B5FD" fill-opacity="0.22"/>
  <circle cx="302" cy="338" r="154" fill="#C7D2FE" fill-opacity="0.3"/>

  <g opacity="0.38">
    <path d="M161 437H1587" stroke="#C7D2FE"/>
    <path d="M161 711H1587" stroke="#C7D2FE"/>
    <path d="M161 985H1587" stroke="#C7D2FE"/>
    <path d="M161 1259H1587" stroke="#C7D2FE"/>
    <path d="M161 1533H1587" stroke="#C7D2FE"/>
    <path d="M161 1807H1587" stroke="#C7D2FE"/>
    <path d="M436 161V2319" stroke="#D9E2FF"/>
    <path d="M782 161V2319" stroke="#D9E2FF"/>
    <path d="M1128 161V2319" stroke="#D9E2FF"/>
    <path d="M1474 161V2319" stroke="#D9E2FF"/>
  </g>

  <g filter="url(#shadowLg)">
    <rect x="170" y="170" width="1408" height="2015" rx="52" fill="white" fill-opacity="0.72"/>
    <rect x="170.75" y="170.75" width="1406.5" height="2013.5" rx="51.25" stroke="white" stroke-opacity="0.7" stroke-width="1.5"/>
  </g>

  <rect x="226" y="228" width="344" height="54" rx="27" fill="#EEF2FF"/>
  <text x="262" y="264" fill="#4F46E5" font-family="'Space Grotesk', 'Plus Jakarta Sans', Arial, sans-serif" font-size="28" font-weight="700" letter-spacing="5.04">PREMIUM STARTUP FLYER</text>

  <g>
    <rect x="226" y="331" width="76" height="76" rx="24" fill="url(#brandGradient)"/>
    <path d="M262 390.5C257.337 396.432 247.814 393.132 247.814 385.593V313.277C247.814 306.766 253.091 301.489 259.601 301.489H283.696C289.411 301.489 292.741 307.95 289.411 312.596L276.279 330.972C272.405 336.392 276.279 343.925 282.95 343.925H314.551C320.405 343.925 323.701 350.675 320.082 355.745L262 390.5Z" fill="white" fill-opacity="0.92"/>
    <text x="328" y="365" fill="#0F172A" font-family="'Space Grotesk', 'Plus Jakarta Sans', Arial, sans-serif" font-size="52" font-weight="700">Business for All</text>
    <text x="328" y="416" fill="#64748B" font-family="'Plus Jakarta Sans', Arial, sans-serif" font-size="25" font-weight="600" letter-spacing="3.8">SCALABLE FRANCHISE OPPORTUNITIES PLATFORM</text>
  </g>

  <text x="226" y="560" fill="#0F172A" font-family="'Space Grotesk', 'Plus Jakarta Sans', Arial, sans-serif" font-size="118" font-weight="700">
    <tspan x="226" dy="0">Start Your</tspan>
    <tspan x="226" dy="118">Franchise Journey</tspan>
    <tspan x="226" dy="118">Today</tspan>
  </text>

  <text x="226" y="954" fill="#475569" font-family="'Plus Jakarta Sans', Arial, sans-serif" font-size="38" font-weight="500">
    <tspan x="226" dy="0">Launch with modern systems, trusted brands, and</tspan>
    <tspan x="226" dy="56">a startup-grade platform built for founders, investors,</tspan>
    <tspan x="226" dy="56">and business owners ready to scale with confidence.</tspan>
  </text>

  <g>
    <rect x="1037" y="406" width="504" height="792" rx="42" fill="url(#cardGradient)"/>
    <rect x="1038" y="407" width="502" height="790" rx="41" stroke="white" stroke-opacity="0.18" stroke-width="2"/>
    <g clip-path="url(#clipCard)">
      <circle cx="1472" cy="453" r="124" fill="#4F7CFF" fill-opacity="0.24"/>
      <circle cx="1090" cy="1110" r="162" fill="#6C5CE7" fill-opacity="0.2"/>
      <rect x="1078" y="462" width="422" height="102" rx="28" fill="white" fill-opacity="0.08"/>
      <text x="1118" y="507" fill="#C7D2FE" font-family="'Plus Jakarta Sans', Arial, sans-serif" font-size="24" font-weight="700" letter-spacing="2.88">LIVE GROWTH DASHBOARD</text>
      <text x="1118" y="545" fill="white" font-family="'Space Grotesk', 'Plus Jakarta Sans', Arial, sans-serif" font-size="42" font-weight="700">Investor-ready momentum</text>

      <rect x="1078" y="610" width="422" height="248" rx="30" fill="white" fill-opacity="0.06"/>
      <text x="1110" y="659" fill="#CBD5E1" font-family="'Plus Jakarta Sans', Arial, sans-serif" font-size="24" font-weight="600">Growth signal</text>
      <path d="M1120 786C1170 734.667 1200 730.667 1237 714C1274 697.333 1321 640 1361 640C1401 640 1432 703.333 1466 714C1500 724.667 1511 707.333 1518 698" stroke="url(#ctaGradient)" stroke-width="12" stroke-linecap="round"/>
      <circle cx="1237" cy="714" r="11" fill="#80FFEA"/>
      <circle cx="1361" cy="640" r="11" fill="#80FFEA"/>
      <circle cx="1518" cy="698" r="11" fill="#80FFEA"/>

      <rect x="1078" y="895" width="196" height="220" rx="28" fill="white" fill-opacity="0.08"/>
      <text x="1110" y="943" fill="#CBD5E1" font-family="'Plus Jakarta Sans', Arial, sans-serif" font-size="24" font-weight="600">Setup speed</text>
      <text x="1110" y="1015" fill="white" font-family="'Space Grotesk', 'Plus Jakarta Sans', Arial, sans-serif" font-size="68" font-weight="700">43</text>
      <text x="1212" y="1015" fill="#80FFEA" font-family="'Plus Jakarta Sans', Arial, sans-serif" font-size="26" font-weight="700">days</text>
      <text x="1110" y="1069" fill="#94A3B8" font-family="'Plus Jakarta Sans', Arial, sans-serif" font-size="24" font-weight="500">average launch prep</text>

      <rect x="1304" y="895" width="196" height="220" rx="28" fill="white" fill-opacity="0.08"/>
      <text x="1336" y="943" fill="#CBD5E1" font-family="'Plus Jakarta Sans', Arial, sans-serif" font-size="24" font-weight="600">ROI range</text>
      <text x="1336" y="1015" fill="white" font-family="'Space Grotesk', 'Plus Jakarta Sans', Arial, sans-serif" font-size="68" font-weight="700">28%</text>
      <text x="1336" y="1069" fill="#94A3B8" font-family="'Plus Jakarta Sans', Arial, sans-serif" font-size="24" font-weight="500">high-growth segments</text>
    </g>
  </g>

  <g>
    <rect x="226" y="1128" width="610" height="84" rx="24" fill="#EEF2FF"/>
    <text x="267" y="1183" fill="#4338CA" font-family="'Space Grotesk', 'Plus Jakarta Sans', Arial, sans-serif" font-size="42" font-weight="700">Why Founders Choose Us</text>
  </g>

  <g>
    <circle cx="248" cy="1319" r="18" fill="#10B981"/>
    <path d="M239 1319.5L246 1326.5L259.5 1312.5" stroke="white" stroke-width="5" stroke-linecap="round" stroke-linejoin="round"/>
    <text x="288" y="1332" fill="#0F172A" font-family="'Plus Jakarta Sans', Arial, sans-serif" font-size="38" font-weight="700">Low Investment Opportunities</text>

    <circle cx="248" cy="1437" r="18" fill="#10B981"/>
    <path d="M239 1437.5L246 1444.5L259.5 1430.5" stroke="white" stroke-width="5" stroke-linecap="round" stroke-linejoin="round"/>
    <text x="288" y="1450" fill="#0F172A" font-family="'Plus Jakarta Sans', Arial, sans-serif" font-size="38" font-weight="700">Trusted Franchise Brands</text>

    <circle cx="248" cy="1555" r="18" fill="#10B981"/>
    <path d="M239 1555.5L246 1562.5L259.5 1548.5" stroke="white" stroke-width="5" stroke-linecap="round" stroke-linejoin="round"/>
    <text x="288" y="1568" fill="#0F172A" font-family="'Plus Jakarta Sans', Arial, sans-serif" font-size="38" font-weight="700">Easy Registration</text>

    <circle cx="248" cy="1673" r="18" fill="#10B981"/>
    <path d="M239 1673.5L246 1680.5L259.5 1666.5" stroke="white" stroke-width="5" stroke-linecap="round" stroke-linejoin="round"/>
    <text x="288" y="1686" fill="#0F172A" font-family="'Plus Jakarta Sans', Arial, sans-serif" font-size="38" font-weight="700">Full Business Support</text>

    <circle cx="248" cy="1791" r="18" fill="#10B981"/>
    <path d="M239 1791.5L246 1798.5L259.5 1784.5" stroke="white" stroke-width="5" stroke-linecap="round" stroke-linejoin="round"/>
    <text x="288" y="1804" fill="#0F172A" font-family="'Plus Jakarta Sans', Arial, sans-serif" font-size="38" font-weight="700">Fast Growth Opportunities</text>
  </g>

  <g>
    <rect x="1028" y="1297" width="521" height="588" rx="42" fill="#F8FAFF"/>
    <rect x="1029" y="1298" width="519" height="586" rx="41" stroke="#E2E8F0" stroke-width="2"/>
    <text x="1083" y="1380" fill="#4F46E5" font-family="'Plus Jakarta Sans', Arial, sans-serif" font-size="24" font-weight="700" letter-spacing="3.84">BUSINESS SNAPSHOT</text>
    <text x="1083" y="1450" fill="#0F172A" font-family="'Space Grotesk', 'Plus Jakarta Sans', Arial, sans-serif" font-size="56" font-weight="700">Modern founder appeal</text>
    <text x="1083" y="1531" fill="#64748B" font-family="'Plus Jakarta Sans', Arial, sans-serif" font-size="30" font-weight="500">
      <tspan x="1083" dy="0">Perfect for ambitious investors, business</tspan>
      <tspan x="1083" dy="44">owners, and first-time founders looking for</tspan>
      <tspan x="1083" dy="44">a serious, scalable franchise launch path.</tspan>
    </text>

    <rect x="1083" y="1643" width="411" height="88" rx="24" fill="#EEF2FF"/>
    <text x="1120" y="1698" fill="#312E81" font-family="'Plus Jakarta Sans', Arial, sans-serif" font-size="34" font-weight="700">Premium positioning</text>
    <rect x="1083" y="1754" width="411" height="88" rx="24" fill="#ECFEFF"/>
    <text x="1120" y="1809" fill="#155E75" font-family="'Plus Jakarta Sans', Arial, sans-serif" font-size="34" font-weight="700">High-trust branding</text>
  </g>

  <g>
    <rect x="226" y="1958" width="1296" height="162" rx="40" fill="url(#ctaGradient)"/>
    <rect x="227" y="1959" width="1294" height="160" rx="39" stroke="white" stroke-opacity="0.38" stroke-width="2"/>
    <text x="291" y="2033" fill="#D8F8FF" font-family="'Plus Jakarta Sans', Arial, sans-serif" font-size="25" font-weight="700" letter-spacing="4.25">CALL TO ACTION</text>
    <text x="291" y="2112" fill="white" font-family="'Space Grotesk', 'Plus Jakarta Sans', Arial, sans-serif" font-size="54" font-weight="700">Apply Now at www.businessforall.com</text>
  </g>

  <g>
    <path d="M226 2214H1522" stroke="#DCE6FF" stroke-width="2"/>
    <text x="226" y="2297" fill="#0F172A" font-family="'Space Grotesk', 'Plus Jakarta Sans', Arial, sans-serif" font-size="38" font-weight="700">Let’s build your next business with confidence.</text>
    <text x="226" y="2368" fill="#64748B" font-family="'Plus Jakarta Sans', Arial, sans-serif" font-size="30" font-weight="600">support@businessforall.com</text>
    <text x="1147" y="2368" fill="#64748B" font-family="'Plus Jakarta Sans', Arial, sans-serif" font-size="30" font-weight="700">businessforall.com</text>
  </g>
</svg>
